<svg xmlns="http://www.w3.org/2000/svg" width="372" height="240"
     viewBox="0 0 372 240" role="img">
  <path
      d="M372 8C372 3.58172 368.418 0 364 0H8C3.58172 0 0 3.58173 0 8.00001V232C0 236.418 3.58172 240 8 240H268C272.418 240 276 236.418 276 232V204C276 170.863 302.863 144 336 144H364C368.418 144 372 140.418 372 136V8Z"
      fill="url(#pattern0_6438_1995)" fill-opacity="0.5"/>
  <path
      d="M372 8C372 3.58172 368.418 0 364 0H8C3.58172 0 0 3.58173 0 8.00001V232C0 236.418 3.58172 240 8 240H268C272.418 240 276 236.418 276 232V204C276 170.863 302.863 144 336 144H364C368.418 144 372 140.418 372 136V8Z"
      fill="url(#pattern1_6438_1995)" fill-opacity="0.5"/>
</svg>